<svg xmlns="http://www.w3.org/2000/svg" width="512.005" height="501.566" viewBox="0 0 135.468 132.706" xmlns:v="https://vecta.io/nano"><path d="M30.903 0S19.781 0 15.993 9.97c-1.571 4.103-6.093 19.921-14.177 36.089 2.724-.297 11.715-.541 17.023-10.266l2.374-6.704h13.322l-.768 33.924H9.62c-5.43 0-7.193 10.912-7.193 10.912h30.292C30.694 96.953 19.781 116.35 0 131.697c9.463 2.706 18.891-.436 23.553-4.574 0 0 10.615-9.655 16.447-31.986l24.932 29.995s3.649-12.414-.576-18.472L47.367 87.35l-6.757 5.36c2.008-6.46 3.23-12.728 3.632-18.786h28.476s-.035-10.912-3.509-10.912v.018H45.045l1.013-33.941h23.64s.908-10.423-3.963-10.301h-40.89C26.451 12.728 28.476 6.478 30.903 0zm47.874 17.04V117.52l10.825.018 3.562 12.187 19.415-12.187h22.889V17.041zM90.3 27.953h33.627v78.672h-12.903l-12.885 8.101-2.34-8.066-5.5-.018z" fill="#fff"/></svg>